<svg xmlns="http://www.w3.org/2000/svg" xmlns:xlink="http://www.w3.org/1999/xlink" width="200" zoomAndPan="magnify" viewBox="0 0 150 149.999998" height="200" preserveAspectRatio="xMidYMid meet" version="1.0"><path fill="#000000" d="M 139.933594 76.914062 C 139.914062 76.921875 103.945312 88.703125 103.945312 88.703125 C 101.570312 83.324219 95.917969 79.425781 88.476562 78.199219 C 77.277344 76.375 69.21875 73.675781 62.734375 71.503906 C 51.8125 67.84375 43.910156 65.203125 31.277344 70.152344 L 14.105469 76.882812 C 14.058594 76.90625 14.019531 76.941406 13.96875 76.972656 C 13.921875 77.003906 13.859375 77.003906 13.8125 77.03125 L 6.945312 81.164062 C 4.128906 82.859375 1.160156 85.105469 0.539062 88.90625 C 0.0078125 92.203125 1.269531 96.140625 4.640625 101.675781 L 7.113281 105.761719 C 10.472656 111.304688 13.386719 114.242188 16.570312 115.300781 C 17.46875 115.597656 18.355469 115.734375 19.21875 115.734375 C 21.859375 115.734375 24.304688 114.527344 26.421875 113.25 L 32.964844 109.316406 L 45.425781 107.28125 C 48.738281 106.332031 55.773438 108.429688 63.207031 110.660156 C 71.148438 113.035156 79.886719 115.644531 87.53125 115.664062 C 89.945312 115.664062 92.25 115.410156 94.386719 114.8125 L 145.570312 94.828125 C 146.96875 94.386719 149.019531 91.933594 149.539062 88.75 C 150.035156 85.628906 149.027344 82.351562 146.851562 79.976562 C 144.585938 77.535156 141.402344 76.511719 139.933594 76.914062 Z M 24.390625 109.90625 C 21.457031 111.671875 19.542969 112.164062 17.800781 111.582031 C 15.644531 110.867188 13.242188 108.296875 10.472656 103.742188 L 7.996094 99.648438 C 5.230469 95.09375 4.058594 91.785156 4.421875 89.550781 C 4.714844 87.742188 6.035156 86.289062 8.972656 84.511719 L 14.15625 81.390625 L 29.570312 106.777344 Z M 142.929688 91.558594 L 93.128906 111.101562 C 85.523438 113.246094 74.273438 109.875 64.339844 106.902344 C 55.976562 104.398438 48.753906 102.25 44.558594 103.46875 L 33.265625 105.292969 L 17.710938 79.671875 L 32.714844 73.796875 C 44.015625 69.367188 50.585938 71.566406 61.484375 75.21875 C 68.09375 77.425781 76.328125 80.1875 87.839844 82.070312 C 97.519531 83.660156 100.164062 89.433594 100.742188 91.160156 C 101.472656 93.359375 101.246094 95.441406 100.140625 96.578125 C 98.910156 97.863281 98.042969 97.746094 93.21875 96.488281 L 90.175781 95.761719 L 68.230469 94.78125 C 67.1875 94.828125 66.234375 95.574219 66.183594 96.652344 C 66.132812 97.734375 66.972656 98.648438 68.054688 98.695312 L 89.796875 99.664062 C 90.683594 99.882812 91.484375 100.089844 92.21875 100.289062 C 94.59375 100.894531 96.507812 101.394531 98.179688 101.394531 C 99.960938 101.40625 101.46875 100.855469 102.976562 99.296875 C 104.59375 97.625 105.300781 95.144531 105.015625 92.472656 L 139.605469 81.066406 C 141.035156 80.65625 142.699219 81.273438 143.949219 82.628906 C 145.3125 84.101562 145.960938 86.21875 145.65625 88.136719 C 145.371094 89.890625 144.300781 91.019531 142.929688 91.558594 Z M 142.929688 91.558594 " fill-opacity="1" fill-rule="nonzero"/><path fill="#000000" d="M 105 15 C 88.457031 15 75 28.457031 75 45 C 75 61.542969 88.457031 75 105 75 C 121.542969 75 135 61.542969 135 45 C 135 28.457031 121.542969 15 105 15 Z M 88.152344 65.101562 C 88.429688 56.039062 95.871094 48.75 105 48.75 C 114.128906 48.75 121.570312 56.039062 121.847656 65.101562 C 117.285156 68.933594 111.410156 71.25 105 71.25 C 98.589844 71.25 92.714844 68.933594 88.152344 65.101562 Z M 95.625 35.625 C 95.625 30.457031 99.832031 26.25 105 26.25 C 110.167969 26.25 114.375 30.457031 114.375 35.625 C 114.375 40.792969 110.167969 45 105 45 C 99.832031 45 95.625 40.792969 95.625 35.625 Z M 125.238281 61.695312 C 123.882812 54.6875 118.964844 48.949219 112.453125 46.414062 C 115.875 44.042969 118.125 40.09375 118.125 35.625 C 118.125 28.390625 112.234375 22.5 105 22.5 C 97.765625 22.5 91.875 28.390625 91.875 35.625 C 91.875 40.09375 94.125 44.042969 97.546875 46.414062 C 91.035156 48.953125 86.117188 54.691406 84.757812 61.699219 C 81.007812 57.15625 78.75 51.335938 78.75 45 C 78.75 30.523438 90.523438 18.75 105 18.75 C 119.476562 18.75 131.25 30.523438 131.25 45 C 131.25 51.335938 128.992188 57.15625 125.238281 61.695312 Z M 125.238281 61.695312 " fill-opacity="1" fill-rule="nonzero"/></svg>