<svg xmlns="http://www.w3.org/2000/svg" xmlns:xlink="http://www.w3.org/1999/xlink" width="200" zoomAndPan="magnify" viewBox="0 0 150 149.999998" height="200" preserveAspectRatio="xMidYMid meet" version="1.0"><defs><clipPath id="2f5e9069dc"><path d="M 0 46 L 150 46 L 150 104.34375 L 0 104.34375 Z M 0 46 " clip-rule="nonzero"/></clipPath><clipPath id="294c292c2f"><path d="M 72.867188 66.628906 L 77.132812 66.628906 L 77.132812 70.898438 L 72.867188 70.898438 Z M 72.867188 66.628906 " clip-rule="nonzero"/></clipPath><clipPath id="243b6abbb3"><path d="M 75 66.628906 C 73.820312 66.628906 72.867188 67.582031 72.867188 68.761719 C 72.867188 69.941406 73.820312 70.898438 75 70.898438 C 76.179688 70.898438 77.132812 69.941406 77.132812 68.761719 C 77.132812 67.582031 76.179688 66.628906 75 66.628906 Z M 75 66.628906 " clip-rule="nonzero"/></clipPath></defs><g clip-path="url(#2f5e9069dc)"><path fill="#000000" d="M 147.320312 66.21875 L 139.226562 66.21875 C 135.402344 54.675781 124.414062 46.308594 111.472656 46.308594 C 98.535156 46.308594 87.546875 54.675781 83.722656 66.21875 C 83.722656 66.21875 79.015625 63.707031 73.59375 63.871094 C 68.738281 64.015625 64.398438 66.21875 64.398438 66.21875 C 60.574219 54.675781 49.585938 46.308594 36.644531 46.308594 C 23.703125 46.308594 12.714844 54.675781 8.890625 66.21875 L 1.726562 66.21875 C 1.726562 66.21875 0 68.257812 0 72.496094 C 0 76.738281 1.726562 77.917969 1.726562 77.917969 L 7.574219 77.917969 C 8.976562 92.554688 21.472656 104.046875 36.644531 104.046875 C 51.238281 104.046875 63.328125 93.402344 65.476562 79.566406 C 65.476562 79.519531 65.460938 79.476562 65.460938 79.429688 C 65.460938 75.523438 69.300781 72.363281 74.035156 72.363281 C 78.578125 72.363281 82.253906 75.28125 82.554688 78.960938 C 84.4375 93.09375 96.667969 104.046875 111.472656 104.046875 C 126.644531 104.046875 139.140625 92.554688 140.542969 77.917969 L 147.320312 77.917969 C 147.320312 77.917969 150 77.273438 150 72.203125 C 150 67.621094 147.320312 66.21875 147.320312 66.21875 Z M 60.953125 77.917969 C 59.570312 89.96875 49.203125 99.367188 36.644531 99.367188 C 24.085938 99.367188 13.71875 89.96875 12.335938 77.917969 C 12.234375 77.015625 12.167969 76.105469 12.167969 75.175781 C 12.167969 72.011719 12.804688 68.992188 13.929688 66.21875 C 17.539062 57.308594 26.351562 50.988281 36.644531 50.988281 C 46.9375 50.988281 55.75 57.308594 59.363281 66.21875 C 60.488281 68.992188 61.121094 72.011719 61.121094 75.175781 C 61.121094 76.105469 61.058594 77.015625 60.953125 77.917969 Z M 135.78125 77.917969 C 134.398438 89.96875 124.03125 99.367188 111.472656 99.367188 C 98.914062 99.367188 88.546875 89.96875 87.167969 77.917969 C 87.0625 77.015625 87 76.105469 87 75.175781 C 87 72.011719 87.632812 68.992188 88.757812 66.21875 C 92.371094 57.308594 101.183594 50.988281 111.472656 50.988281 C 121.765625 50.988281 130.578125 57.308594 134.1875 66.21875 C 135.3125 68.992188 135.949219 72.011719 135.949219 75.175781 C 135.949219 76.105469 135.882812 77.015625 135.78125 77.917969 Z M 135.78125 77.917969 " fill-opacity="1" fill-rule="nonzero"/></g><g clip-path="url(#294c292c2f)"><g clip-path="url(#243b6abbb3)"><path fill="#000000" d="M 72.867188 66.628906 L 77.132812 66.628906 L 77.132812 70.898438 L 72.867188 70.898438 Z M 72.867188 66.628906 " fill-opacity="1" fill-rule="nonzero"/></g></g></svg>